<?xml version="1.0" encoding="UTF-8"?>
<svg xmlns="http://www.w3.org/2000/svg" xmlns:xlink="http://www.w3.org/1999/xlink" width="1920" height="1080" viewBox="0 0 1920 1080">
<defs>
<g>
<g id="glyph-0-0">
<path d="M 0.59375 -0.210938 C 1.046875 -0.210938 1.335938 -0.273438 1.460938 -0.398438 C 1.589844 -0.519531 1.652344 -0.753906 1.652344 -1.097656 L 1.652344 -4.523438 C 1.652344 -4.742188 1.628906 -4.898438 1.578125 -4.992188 C 1.527344 -5.085938 1.433594 -5.128906 1.296875 -5.128906 C 1.226562 -5.128906 1.113281 -5.105469 0.964844 -5.058594 C 0.867188 -5.027344 0.738281 -4.980469 0.574219 -4.917969 L 0.574219 -5.144531 L 2.816406 -6.113281 L 2.972656 -6.113281 L 2.972656 -1.046875 C 2.972656 -0.722656 3.027344 -0.503906 3.128906 -0.386719 C 3.234375 -0.269531 3.5 -0.210938 3.929688 -0.210938 L 3.929688 0 L 0.59375 0 Z "/>
</g>
<g id="glyph-0-1">
<path d="M 0.40625 -2.253906 C 0.40625 -3.050781 0.578125 -3.769531 0.921875 -4.410156 C 1.3125 -5.148438 1.910156 -5.734375 2.714844 -6.171875 L 2.714844 -5.925781 C 2.234375 -5.585938 1.921875 -5.253906 1.769531 -4.925781 C 1.535156 -4.410156 1.417969 -3.546875 1.417969 -2.335938 C 1.417969 -1.121094 1.539062 -0.253906 1.773438 0.265625 C 1.925781 0.59375 2.238281 0.925781 2.714844 1.257812 L 2.714844 1.507812 C 2.109375 1.195312 1.609375 0.769531 1.21875 0.226562 C 0.722656 -0.464844 0.453125 -1.292969 0.40625 -2.253906 Z "/>
</g>
<g id="glyph-0-2">
<path d="M 0.195312 -0.707031 C 0.195312 -0.859375 0.246094 -0.984375 0.34375 -1.089844 C 0.441406 -1.195312 0.574219 -1.246094 0.742188 -1.246094 C 0.957031 -1.246094 1.246094 -1.117188 1.605469 -0.855469 C 1.96875 -0.597656 2.25 -0.46875 2.449219 -0.46875 C 2.683594 -0.46875 2.886719 -0.550781 3.054688 -0.714844 C 3.226562 -0.878906 3.3125 -1.105469 3.3125 -1.382812 C 3.3125 -1.671875 3.214844 -1.914062 3.019531 -2.113281 C 2.828125 -2.3125 2.609375 -2.46875 2.367188 -2.578125 C 2.105469 -2.695312 1.808594 -2.785156 1.480469 -2.839844 C 1.265625 -2.875 0.921875 -2.90625 0.453125 -2.9375 L 1.316406 -6.007812 L 4.175781 -6.007812 L 3.792969 -4.875 L 1.324219 -4.875 L 1.128906 -4.152344 C 1.816406 -4.132812 2.375 -4.035156 2.804688 -3.855469 C 3.609375 -3.519531 4.011719 -2.921875 4.011719 -2.066406 C 4.011719 -1.441406 3.769531 -0.925781 3.289062 -0.523438 C 2.808594 -0.121094 2.207031 0.0820312 1.480469 0.0820312 C 1.113281 0.0820312 0.804688 0.0117188 0.5625 -0.132812 C 0.316406 -0.277344 0.195312 -0.46875 0.195312 -0.707031 Z "/>
</g>
<g id="glyph-0-3">
<path d="M 2.507812 -2.253906 C 2.480469 -1.632812 2.367188 -1.085938 2.164062 -0.617188 C 1.964844 -0.148438 1.675781 0.292969 1.296875 0.703125 C 1.113281 0.902344 0.890625 1.085938 0.632812 1.253906 C 0.375 1.421875 0.234375 1.507812 0.203125 1.507812 L 0.203125 1.257812 C 0.679688 0.921875 0.996094 0.585938 1.148438 0.246094 C 1.382812 -0.269531 1.5 -1.128906 1.5 -2.335938 C 1.5 -3.546875 1.382812 -4.410156 1.144531 -4.925781 C 0.996094 -5.253906 0.679688 -5.585938 0.203125 -5.925781 L 0.203125 -6.171875 C 0.984375 -5.746094 1.574219 -5.179688 1.964844 -4.464844 C 2.328125 -3.8125 2.507812 -3.074219 2.507812 -2.253906 Z "/>
</g>
</g>
</defs>
<g fill="rgb(100%, 100%, 100%)" fill-opacity="1">
<use xlink:href="#glyph-0-0" x="30" y="26.666992"/>
<use xlink:href="#glyph-0-1" x="34" y="26.666992"/>
<use xlink:href="#glyph-0-2" x="37" y="26.666992"/>
<use xlink:href="#glyph-0-3" x="41" y="26.666992"/>
</g>
</svg>
