<?xml version="1.0" encoding="UTF-8"?>
<svg xmlns="http://www.w3.org/2000/svg" xmlns:xlink="http://www.w3.org/1999/xlink" width="1920" height="1080" viewBox="0 0 1920 1080">
<defs>
<g>
<g id="glyph-0-0">
<path d="M 2.382812 -2.261719 L 2.382812 -4.792969 L 2.320312 -4.792969 L 0.585938 -2.34375 L 0.585938 -2.261719 Z M 0.160156 -2.28125 C 0.183594 -2.332031 0.207031 -2.375 0.234375 -2.414062 C 0.261719 -2.453125 0.339844 -2.566406 0.472656 -2.757812 L 1.398438 -4.070312 L 2.589844 -5.648438 L 2.953125 -6.113281 L 3.660156 -6.113281 L 3.660156 -2.261719 L 4.214844 -2.261719 L 4.214844 -1.273438 L 3.660156 -1.273438 L 3.660156 0 L 2.375 0 L 2.375 -1.273438 L 0.160156 -1.273438 Z "/>
</g>
<g id="glyph-0-1">
<path d="M 0.40625 -2.253906 C 0.40625 -3.050781 0.578125 -3.769531 0.921875 -4.410156 C 1.3125 -5.148438 1.910156 -5.734375 2.714844 -6.171875 L 2.714844 -5.925781 C 2.234375 -5.585938 1.921875 -5.253906 1.769531 -4.925781 C 1.535156 -4.410156 1.417969 -3.546875 1.417969 -2.335938 C 1.417969 -1.121094 1.539062 -0.253906 1.773438 0.265625 C 1.925781 0.59375 2.238281 0.925781 2.714844 1.257812 L 2.714844 1.507812 C 2.109375 1.195312 1.609375 0.769531 1.21875 0.226562 C 0.722656 -0.464844 0.453125 -1.292969 0.40625 -2.253906 Z "/>
</g>
<g id="glyph-0-2">
<path d="M 2.621094 -3.753906 C 2.75 -3.929688 2.835938 -4.070312 2.878906 -4.167969 C 2.949219 -4.328125 2.980469 -4.519531 2.980469 -4.75 C 2.980469 -5.070312 2.921875 -5.332031 2.804688 -5.539062 C 2.6875 -5.746094 2.480469 -5.851562 2.1875 -5.851562 C 1.976562 -5.851562 1.804688 -5.78125 1.671875 -5.644531 C 1.539062 -5.503906 1.472656 -5.332031 1.472656 -5.121094 C 1.472656 -4.792969 1.636719 -4.480469 1.96875 -4.183594 C 2.164062 -4.011719 2.382812 -3.867188 2.621094 -3.753906 Z M 1.292969 -1.398438 C 1.292969 -1.148438 1.332031 -0.925781 1.410156 -0.726562 C 1.550781 -0.351562 1.804688 -0.164062 2.164062 -0.164062 C 2.371094 -0.164062 2.550781 -0.242188 2.703125 -0.394531 C 2.855469 -0.546875 2.929688 -0.804688 2.929688 -1.167969 C 2.929688 -1.519531 2.816406 -1.820312 2.585938 -2.070312 C 2.445312 -2.226562 2.164062 -2.441406 1.746094 -2.714844 C 1.578125 -2.457031 1.46875 -2.257812 1.414062 -2.121094 C 1.332031 -1.917969 1.292969 -1.675781 1.292969 -1.398438 Z M 0.226562 -1.375 C 0.226562 -1.828125 0.386719 -2.1875 0.710938 -2.453125 C 0.886719 -2.601562 1.144531 -2.730469 1.480469 -2.839844 L 1.480469 -2.921875 C 1.410156 -2.9375 1.273438 -3.03125 1.066406 -3.203125 C 0.863281 -3.371094 0.710938 -3.523438 0.613281 -3.664062 C 0.492188 -3.828125 0.414062 -3.980469 0.375 -4.121094 C 0.335938 -4.261719 0.316406 -4.410156 0.316406 -4.5625 C 0.316406 -4.992188 0.503906 -5.359375 0.871094 -5.660156 C 1.242188 -5.960938 1.726562 -6.113281 2.328125 -6.113281 C 2.882812 -6.113281 3.308594 -5.988281 3.605469 -5.734375 C 3.902344 -5.484375 4.050781 -5.191406 4.050781 -4.847656 C 4.050781 -4.5 3.898438 -4.207031 3.59375 -3.972656 C 3.425781 -3.839844 3.195312 -3.722656 2.898438 -3.621094 L 2.898438 -3.558594 C 3.320312 -3.253906 3.613281 -3.007812 3.769531 -2.816406 C 4.035156 -2.492188 4.167969 -2.117188 4.167969 -1.683594 C 4.167969 -1.113281 3.96875 -0.667969 3.578125 -0.351562 C 3.183594 -0.0351562 2.679688 0.125 2.070312 0.125 C 1.617188 0.125 1.195312 0 0.808594 -0.253906 C 0.421875 -0.507812 0.226562 -0.882812 0.226562 -1.375 Z "/>
</g>
<g id="glyph-0-3">
<path d="M 2.507812 -2.253906 C 2.480469 -1.632812 2.367188 -1.085938 2.164062 -0.617188 C 1.964844 -0.148438 1.675781 0.292969 1.296875 0.703125 C 1.113281 0.902344 0.890625 1.085938 0.632812 1.253906 C 0.375 1.421875 0.234375 1.507812 0.203125 1.507812 L 0.203125 1.257812 C 0.679688 0.921875 0.996094 0.585938 1.148438 0.246094 C 1.382812 -0.269531 1.5 -1.128906 1.5 -2.335938 C 1.5 -3.546875 1.382812 -4.410156 1.144531 -4.925781 C 0.996094 -5.253906 0.679688 -5.585938 0.203125 -5.925781 L 0.203125 -6.171875 C 0.984375 -5.746094 1.574219 -5.179688 1.964844 -4.464844 C 2.328125 -3.8125 2.507812 -3.074219 2.507812 -2.253906 Z "/>
</g>
</g>
</defs>
<g fill="rgb(100%, 100%, 100%)" fill-opacity="1">
<use xlink:href="#glyph-0-0" x="30" y="26.666992"/>
<use xlink:href="#glyph-0-1" x="34" y="26.666992"/>
<use xlink:href="#glyph-0-2" x="37" y="26.666992"/>
<use xlink:href="#glyph-0-3" x="41" y="26.666992"/>
</g>
</svg>
