<?xml version="1.0" encoding="UTF-8"?>
<svg xmlns="http://www.w3.org/2000/svg" xmlns:xlink="http://www.w3.org/1999/xlink" width="1920" height="1080" viewBox="0 0 1920 1080">
<defs>
<g>
<g id="glyph-0-0">
<path d="M 1.601562 -1.976562 C 1.609375 -1.253906 1.660156 -0.761719 1.761719 -0.511719 C 1.863281 -0.257812 2.015625 -0.128906 2.222656 -0.128906 C 2.480469 -0.128906 2.652344 -0.363281 2.742188 -0.832031 C 2.792969 -1.089844 2.816406 -1.472656 2.816406 -1.976562 L 2.816406 -4.011719 C 2.816406 -4.730469 2.765625 -5.21875 2.664062 -5.472656 C 2.5625 -5.726562 2.410156 -5.851562 2.214844 -5.851562 C 2.015625 -5.851562 1.863281 -5.722656 1.757812 -5.46875 C 1.652344 -5.210938 1.601562 -4.726562 1.601562 -4.011719 Z M 0.203125 -2.953125 C 0.203125 -4.015625 0.441406 -4.835938 0.914062 -5.417969 C 1.292969 -5.878906 1.722656 -6.113281 2.210938 -6.113281 C 2.769531 -6.113281 3.242188 -5.828125 3.628906 -5.257812 C 4.019531 -4.671875 4.214844 -3.9375 4.214844 -3.050781 C 4.214844 -2.007812 3.992188 -1.195312 3.550781 -0.613281 C 3.175781 -0.125 2.730469 0.121094 2.214844 0.121094 C 1.847656 0.121094 1.539062 0.015625 1.28125 -0.199219 C 1.023438 -0.414062 0.804688 -0.691406 0.621094 -1.027344 C 0.464844 -1.316406 0.355469 -1.644531 0.289062 -2.015625 C 0.253906 -2.230469 0.222656 -2.542969 0.203125 -2.953125 Z "/>
</g>
<g id="glyph-0-1">
<path d="M 0.40625 -2.253906 C 0.40625 -3.050781 0.578125 -3.769531 0.921875 -4.410156 C 1.3125 -5.148438 1.910156 -5.734375 2.714844 -6.171875 L 2.714844 -5.925781 C 2.234375 -5.585938 1.921875 -5.253906 1.769531 -4.925781 C 1.535156 -4.410156 1.417969 -3.546875 1.417969 -2.335938 C 1.417969 -1.121094 1.539062 -0.253906 1.773438 0.265625 C 1.925781 0.59375 2.238281 0.925781 2.714844 1.257812 L 2.714844 1.507812 C 2.109375 1.195312 1.609375 0.769531 1.21875 0.226562 C 0.722656 -0.464844 0.453125 -1.292969 0.40625 -2.253906 Z "/>
</g>
<g id="glyph-0-2">
<path d="M 2.382812 -2.261719 L 2.382812 -4.792969 L 2.320312 -4.792969 L 0.585938 -2.34375 L 0.585938 -2.261719 Z M 0.160156 -2.28125 C 0.183594 -2.332031 0.207031 -2.375 0.234375 -2.414062 C 0.261719 -2.453125 0.339844 -2.566406 0.472656 -2.757812 L 1.398438 -4.070312 L 2.589844 -5.648438 L 2.953125 -6.113281 L 3.660156 -6.113281 L 3.660156 -2.261719 L 4.214844 -2.261719 L 4.214844 -1.273438 L 3.660156 -1.273438 L 3.660156 0 L 2.375 0 L 2.375 -1.273438 L 0.160156 -1.273438 Z "/>
</g>
<g id="glyph-0-3">
<path d="M 2.507812 -2.253906 C 2.480469 -1.632812 2.367188 -1.085938 2.164062 -0.617188 C 1.964844 -0.148438 1.675781 0.292969 1.296875 0.703125 C 1.113281 0.902344 0.890625 1.085938 0.632812 1.253906 C 0.375 1.421875 0.234375 1.507812 0.203125 1.507812 L 0.203125 1.257812 C 0.679688 0.921875 0.996094 0.585938 1.148438 0.246094 C 1.382812 -0.269531 1.5 -1.128906 1.5 -2.335938 C 1.5 -3.546875 1.382812 -4.410156 1.144531 -4.925781 C 0.996094 -5.253906 0.679688 -5.585938 0.203125 -5.925781 L 0.203125 -6.171875 C 0.984375 -5.746094 1.574219 -5.179688 1.964844 -4.464844 C 2.328125 -3.8125 2.507812 -3.074219 2.507812 -2.253906 Z "/>
</g>
</g>
</defs>
<g fill="rgb(100%, 100%, 100%)" fill-opacity="1">
<use xlink:href="#glyph-0-0" x="30" y="26.666992"/>
<use xlink:href="#glyph-0-1" x="34" y="26.666992"/>
<use xlink:href="#glyph-0-2" x="37" y="26.666992"/>
<use xlink:href="#glyph-0-3" x="41" y="26.666992"/>
</g>
</svg>
